<?xml version="1.0" encoding="UTF-8" ?>
<!DOCTYPE svg PUBLIC "-//W3C//DTD SVG 1.1//EN" "http://www.w3.org/Graphics/SVG/1.1/DTD/svg11.dtd">
<svg width="589pt" height="593pt" viewBox="0 0 589 593" version="1.1" xmlns="http://www.w3.org/2000/svg">
<g id="#591c24ff">
<path fill="#591c24" opacity="1.00" d=" M 284.97 4.44 C 291.61 3.74 298.31 3.85 304.96 4.49 C 373.94 6.58 441.78 34.42 492.47 81.22 C 503.03 90.06 512.06 100.53 520.96 110.97 C 560.30 158.07 584.26 217.80 588.12 279.06 C 588.26 283.03 588.35 287.01 589.00 290.94 L 589.00 306.20 C 588.35 310.09 588.25 314.05 588.12 317.99 C 584.00 382.50 557.63 445.34 514.48 493.46 C 507.69 501.00 501.07 508.81 493.07 515.12 C 444.61 560.37 380.12 587.85 314.00 592.11 C 309.34 592.34 304.66 592.25 300.06 593.00 L 288.80 593.00 C 284.25 592.24 279.63 592.34 275.04 592.11 C 208.91 587.89 144.42 560.37 95.95 515.13 C 88.98 509.42 82.64 502.91 76.84 496.02 C 32.54 447.83 5.30 384.30 0.93 318.97 C 0.80 315.00 0.66 311.01 0.00 307.08 L 0.00 290.80 C 0.66 286.91 0.74 282.96 0.88 279.03 C 5.02 213.15 32.45 148.99 77.24 100.52 C 86.05 89.93 96.57 80.95 106.99 72.01 C 156.61 30.55 220.31 6.26 284.97 4.44 M 175.69 36.74 C 137.03 54.25 102.42 80.55 75.04 112.95 C 47.61 145.28 27.50 183.76 16.65 224.74 C 19.20 224.75 21.75 224.75 24.29 224.75 C 35.74 182.78 57.14 143.58 86.30 111.28 C 128.76 63.80 187.88 31.50 250.89 21.86 C 290.80 15.62 332.08 18.01 370.95 29.05 C 424.92 44.21 473.90 76.26 509.70 119.37 C 535.30 150.01 554.17 186.22 564.69 224.73 C 567.24 224.75 569.79 224.76 572.34 224.77 C 560.82 181.27 538.89 140.59 508.85 107.09 C 471.48 65.09 421.53 34.40 367.07 20.34 C 303.90 3.79 235.10 9.53 175.69 36.74 M 147.58 63.57 C 89.28 99.82 45.45 158.50 27.36 224.73 C 31.43 224.77 35.51 224.77 39.58 224.74 C 59.62 154.60 110.07 93.90 175.39 61.43 C 227.24 35.08 287.93 26.94 344.98 38.02 C 400.53 48.58 452.28 77.72 490.29 119.55 C 517.78 149.42 538.07 185.78 549.43 224.74 C 553.50 224.76 557.57 224.77 561.64 224.73 C 547.34 172.88 517.57 125.44 477.03 90.08 C 434.33 52.44 379.74 28.52 323.08 22.90 C 262.22 16.47 199.33 30.84 147.58 63.57 M 113.67 114.70 C 82.65 144.93 59.68 183.26 47.29 224.74 C 212.09 224.77 376.90 224.76 541.71 224.75 C 534.07 199.41 522.68 175.17 507.67 153.36 C 475.82 106.41 428.08 70.44 374.03 53.10 C 345.73 43.89 315.79 39.72 286.05 40.76 C 222.00 42.46 159.06 69.48 113.67 114.70 M 14.71 364.72 C 201.23 364.79 387.74 364.76 574.25 364.73 C 582.43 329.85 584.11 293.46 579.06 257.99 C 577.71 249.39 576.54 240.63 574.04 232.32 C 387.62 232.14 201.19 232.32 14.77 232.24 C 4.48 275.60 4.58 321.33 14.71 364.72 M 16.66 372.24 C 28.53 417.08 51.50 458.90 82.94 492.99 C 110.15 522.62 143.63 546.48 180.58 562.42 C 222.71 580.72 269.32 588.46 315.11 585.14 C 357.15 582.24 398.50 569.84 435.20 549.14 C 468.57 530.35 498.18 504.87 521.61 474.56 C 545.18 444.33 562.47 409.28 572.34 372.25 C 569.79 372.24 567.25 372.25 564.72 372.25 C 557.65 397.58 547.33 422.05 533.48 444.43 C 513.92 476.46 487.83 504.47 457.32 526.32 C 424.61 549.82 386.73 566.08 347.15 573.57 C 301.75 582.22 254.20 579.53 210.12 565.58 C 172.83 553.85 138.12 534.10 108.91 508.15 C 68.32 472.33 38.49 424.51 24.29 372.25 C 21.75 372.25 19.21 372.24 16.66 372.24 M 27.36 372.28 C 37.38 408.42 54.77 442.51 78.29 471.74 C 102.61 502.10 133.38 527.27 167.98 545.07 C 205.58 564.44 247.71 574.96 290.00 575.51 C 335.73 576.37 381.64 565.63 422.19 544.45 C 454.67 527.57 483.71 504.15 507.16 476.06 C 532.48 445.89 551.07 410.19 561.64 372.28 C 557.57 372.23 553.50 372.24 549.43 372.26 C 535.02 421.85 505.90 467.07 466.47 500.45 C 434.27 527.98 395.37 547.67 354.05 557.08 C 309.93 567.22 263.23 565.87 219.79 553.13 C 181.42 541.90 145.66 521.79 116.14 494.82 C 79.90 462.12 53.19 419.12 39.58 372.26 C 35.50 372.24 31.43 372.23 27.36 372.28 M 47.30 372.26 C 64.86 431.62 104.71 483.97 157.18 516.81 C 189.30 537.20 226.06 550.19 263.85 554.62 C 305.45 559.58 348.27 554.34 387.36 539.20 C 423.47 525.27 456.29 503.01 482.73 474.75 C 509.97 445.76 530.29 410.37 541.70 372.26 C 376.90 372.24 212.10 372.25 47.30 372.26 Z" />
<path fill="#591c24" opacity="1.00" d=" M 264.36 81.47 C 264.88 79.34 266.57 77.14 269.01 77.52 C 286.02 77.49 303.03 77.49 320.03 77.52 C 322.28 77.25 324.09 79.02 324.62 81.08 C 328.26 93.04 329.76 105.56 330.21 118.03 C 330.56 123.52 329.54 129.12 326.90 133.97 C 321.19 144.37 310.81 152.35 299.00 154.28 C 298.98 163.27 299.04 172.26 298.96 181.26 C 305.82 186.79 314.50 189.24 322.96 191.09 C 325.03 191.39 325.76 193.55 326.46 195.21 C 305.15 195.28 283.85 195.28 262.54 195.21 C 263.24 193.52 264.00 191.35 266.12 191.08 C 274.56 189.22 283.23 186.77 290.06 181.21 C 289.93 172.23 290.03 163.25 290.00 154.27 C 277.43 152.41 265.71 144.05 260.90 132.14 C 258.14 125.79 258.67 118.72 259.10 111.99 C 259.78 101.67 261.36 91.37 264.36 81.47 M 268.11 124.04 C 270.60 136.16 282.58 145.04 294.70 145.57 C 285.80 142.35 277.02 135.09 276.56 124.97 C 276.40 115.03 277.66 104.99 280.71 95.52 C 293.39 95.49 306.07 95.48 318.75 95.52 C 318.10 92.50 317.43 89.49 316.67 86.50 C 301.96 86.49 287.25 86.52 272.53 86.48 C 268.86 98.60 267.54 111.43 268.11 124.04 Z" />
<path fill="#591c24" opacity="1.00" d=" M 181.78 268.15 C 185.93 267.91 190.09 268.01 194.24 268.01 C 194.25 282.32 194.23 296.64 194.26 310.95 C 195.50 311.55 198.78 311.84 197.37 313.91 C 192.23 314.02 187.06 314.21 181.93 313.78 C 180.70 311.90 184.14 311.63 185.19 310.92 C 185.23 297.63 185.23 284.34 185.19 271.05 C 183.69 270.49 181.92 270.06 181.78 268.15 Z" />
<path fill="#591c24" opacity="1.00" d=" M 129.27 271.05 C 141.39 270.93 153.52 271.03 165.65 271.01 C 165.65 274.69 165.65 278.37 165.65 282.05 C 164.96 281.99 163.59 281.86 162.90 281.79 C 162.69 279.59 162.47 277.38 162.26 275.18 C 156.45 274.07 150.52 274.61 144.65 274.53 C 144.65 279.67 144.65 284.82 144.64 289.97 C 148.52 290.01 152.41 290.01 156.29 289.98 C 156.57 288.41 156.86 286.84 157.17 285.28 C 157.82 285.24 159.12 285.17 159.78 285.13 C 159.79 289.60 159.75 294.08 159.84 298.55 C 156.47 299.51 156.90 295.69 156.20 293.52 C 152.35 293.49 148.50 293.49 144.65 293.53 C 144.65 299.17 144.65 304.82 144.65 310.48 C 151.14 310.36 157.69 310.96 164.13 309.87 C 164.62 307.27 165.06 304.65 165.90 302.14 C 166.55 302.07 167.85 301.92 168.50 301.84 C 168.27 305.90 168.37 309.99 167.76 314.02 C 154.92 313.92 142.07 314.12 129.22 313.92 C 129.27 313.36 129.37 312.26 129.42 311.70 C 131.21 311.39 132.99 311.09 134.78 310.80 C 134.74 298.59 134.74 286.39 134.78 274.18 C 132.99 273.88 131.19 273.58 129.40 273.28 C 129.37 272.73 129.30 271.61 129.27 271.05 Z" />
<path fill="#591c24" opacity="1.00" d=" M 208.46 271.02 C 222.39 270.98 236.31 271.01 250.24 271.00 C 250.24 275.00 250.24 279.00 250.24 283.00 C 249.57 283.00 248.22 283.00 247.55 283.00 C 247.27 280.33 246.90 277.68 246.58 275.02 C 242.49 274.45 238.37 274.34 234.25 274.22 C 234.22 286.42 234.27 298.62 234.23 310.82 C 236.50 311.59 241.38 310.25 241.22 313.81 C 233.26 314.19 225.27 314.01 217.31 313.89 C 217.37 313.35 217.48 312.27 217.54 311.74 C 219.82 311.41 222.09 311.08 224.37 310.78 C 224.33 298.61 224.36 286.44 224.36 274.27 C 220.24 274.29 216.02 274.08 212.03 275.24 C 211.57 277.81 211.44 280.43 211.19 283.04 C 210.50 283.02 209.14 282.99 208.46 282.97 C 208.47 278.98 208.47 275.00 208.46 271.02 Z" />
<path fill="#591c24" opacity="1.00" d=" M 259.75 284.19 C 265.73 283.51 272.02 281.89 277.88 284.09 C 280.77 285.00 282.72 287.94 282.63 290.94 C 282.72 297.60 282.59 304.27 282.67 310.93 C 284.15 311.51 285.93 311.94 286.02 313.87 C 282.28 314.06 278.53 314.00 274.79 314.00 C 274.63 313.50 274.30 312.50 274.14 312.01 C 270.55 314.09 266.31 315.89 262.12 314.61 C 254.31 313.03 253.96 300.10 261.13 297.41 C 265.14 296.03 269.45 296.11 273.64 295.94 C 273.33 292.84 274.62 288.68 271.63 286.56 C 268.78 285.06 265.52 286.52 262.83 287.71 C 262.26 289.57 262.31 292.15 259.80 292.34 C 259.74 289.62 259.75 286.90 259.75 284.19 M 265.75 301.45 C 264.83 304.61 264.71 308.40 266.90 311.09 C 269.18 311.06 271.46 310.84 273.64 310.10 C 273.60 306.34 273.61 302.59 273.62 298.83 C 270.91 299.07 267.21 298.51 265.75 301.45 Z" />
<path fill="#591c24" opacity="1.00" d=" M 308.96 286.48 C 313.15 284.45 317.90 281.83 322.66 283.55 C 325.87 284.45 327.54 287.84 327.49 290.98 C 327.62 297.69 327.47 304.41 327.54 311.12 C 328.26 311.33 329.69 311.74 330.40 311.95 C 330.51 312.41 330.73 313.32 330.83 313.78 C 325.86 314.13 320.87 314.08 315.90 313.91 C 314.59 312.11 317.34 311.59 318.44 310.99 C 318.46 304.97 318.50 298.95 318.46 292.94 C 318.50 291.03 317.95 288.78 316.06 287.90 C 313.73 286.49 311.08 287.91 308.73 288.53 C 308.86 295.99 308.71 303.45 308.82 310.90 C 310.32 311.41 311.79 312.09 312.11 313.83 C 306.89 314.11 301.65 314.10 296.44 313.82 C 296.87 312.18 298.33 311.54 299.74 310.95 C 299.68 303.04 299.92 295.11 299.65 287.20 C 298.51 286.36 297.28 285.65 296.12 284.87 C 299.93 283.23 304.27 284.16 308.31 284.10 C 308.47 284.70 308.80 285.89 308.96 286.48 Z" />
<path fill="#591c24" opacity="1.00" d=" M 349.01 285.18 C 353.21 282.59 358.37 282.75 363.07 283.49 C 366.52 284.34 369.72 282.34 373.16 282.37 C 373.16 296.59 373.14 310.82 373.17 325.04 C 374.73 325.56 376.62 325.87 376.48 327.98 C 370.71 327.93 364.93 328.21 359.17 327.79 C 359.28 327.35 359.49 326.46 359.59 326.02 C 361.07 325.44 363.27 325.94 364.08 324.25 C 364.24 320.34 363.50 316.40 364.35 312.52 C 359.36 315.68 352.47 315.99 347.68 312.31 C 343.66 308.81 343.12 303.04 343.22 298.05 C 343.18 293.24 344.78 287.92 349.01 285.18 M 353.84 289.76 C 351.82 295.67 351.66 302.54 353.77 308.44 C 355.55 312.38 360.45 311.72 363.81 310.56 C 363.90 302.62 363.79 294.67 363.87 286.73 C 360.34 285.94 355.29 285.53 353.84 289.76 Z" />
<path fill="#591c24" opacity="1.00" d=" M 438.40 285.38 C 442.95 282.39 449.37 282.07 454.03 284.97 C 458.42 288.24 458.35 294.33 458.44 299.27 C 453.06 299.26 447.68 299.25 442.31 299.28 C 442.57 302.84 442.06 307.34 445.35 309.72 C 449.09 312.16 453.86 310.67 457.97 310.26 C 457.83 310.87 457.54 312.09 457.40 312.69 C 451.71 315.34 444.63 316.09 439.01 312.88 C 434.33 310.03 433.11 304.10 433.31 299.01 C 433.12 294.09 434.11 288.41 438.40 285.38 M 444.09 287.20 C 442.21 289.71 442.66 293.06 442.33 296.01 C 444.82 296.00 447.31 295.99 449.81 295.97 C 449.57 293.32 449.86 290.55 449.02 288.00 C 448.37 285.95 445.33 285.39 444.09 287.20 Z" />
<path fill="#591c24" opacity="1.00" d=" M 386.70 284.08 C 390.68 283.87 394.67 284.04 398.66 284.02 C 398.65 290.67 398.64 297.32 398.64 303.97 C 398.63 306.16 398.92 308.93 401.07 310.12 C 403.38 311.49 405.97 310.06 408.34 309.66 C 408.35 302.15 408.39 294.64 408.32 287.12 C 406.87 286.55 405.43 285.87 404.86 284.32 C 409.01 283.79 413.20 284.03 417.38 284.01 C 417.40 293.02 417.34 302.04 417.42 311.06 C 418.64 311.57 421.53 311.94 420.23 313.92 C 416.42 314.13 412.60 313.95 408.79 314.00 C 408.66 313.36 408.40 312.10 408.27 311.46 C 404.05 313.56 399.23 316.19 394.42 314.42 C 391.21 313.51 389.67 310.06 389.66 306.96 C 389.50 300.29 389.72 293.62 389.57 286.95 C 388.28 286.42 385.63 286.12 386.70 284.08 Z" />
<path fill="#591c24" opacity="1.00" d=" M 389.14 412.47 C 391.10 411.88 393.15 411.97 395.18 411.98 C 395.16 419.52 395.20 427.07 395.16 434.61 C 396.24 435.00 397.31 435.41 398.38 435.85 C 395.28 436.10 392.16 436.09 389.06 435.86 C 390.20 435.43 391.35 435.03 392.52 434.65 C 392.52 427.52 392.47 420.39 392.55 413.26 C 391.69 413.07 389.99 412.67 389.14 412.47 Z" />
<path fill="#591c24" opacity="1.00" d=" M 458.68 412.09 C 460.55 411.99 462.42 411.98 464.31 411.96 C 464.33 417.44 464.25 422.93 464.36 428.41 C 466.62 426.13 468.79 423.76 471.02 421.46 C 470.48 421.09 469.39 420.36 468.85 420.00 C 471.06 419.99 473.27 419.98 475.49 419.99 C 472.60 421.27 470.40 423.52 468.31 425.81 C 471.00 429.21 472.39 433.88 476.43 436.02 C 473.99 435.99 471.55 436.00 469.11 436.00 C 469.58 435.64 470.51 434.92 470.97 434.56 C 469.50 432.33 468.06 430.08 466.57 427.87 C 465.80 428.65 465.05 429.42 464.30 430.21 C 464.29 431.65 464.28 433.11 464.28 434.57 C 464.88 434.92 466.09 435.62 466.69 435.97 C 464.14 436.03 461.60 436.02 459.06 435.98 C 459.72 435.62 461.04 434.92 461.71 434.57 C 461.65 427.51 461.65 420.44 461.71 413.38 C 460.69 412.96 459.68 412.53 458.68 412.09 Z" />
<path fill="#591c24" opacity="1.00" d=" M 148.53 421.49 C 146.72 419.06 147.19 415.79 146.64 412.96 C 147.44 412.98 149.03 413.02 149.83 413.05 C 149.43 415.86 149.16 418.70 148.53 421.49 Z" />
<path fill="#591c24" opacity="1.00" d=" M 237.38 414.86 C 238.47 413.14 241.87 412.85 241.48 415.54 C 240.70 418.06 238.02 416.72 237.38 414.86 Z" />
<path fill="#591c24" opacity="1.00" d=" M 350.59 413.07 C 351.66 413.04 352.74 413.01 353.83 413.00 C 353.43 415.82 353.16 418.68 352.54 421.48 C 350.74 419.10 351.21 415.85 350.59 413.07 Z" />
<path fill="#591c24" opacity="1.00" d=" M 111.15 414.21 C 111.91 412.14 115.67 414.21 114.11 415.97 C 113.13 418.57 109.34 415.74 111.15 414.21 Z" />
<path fill="#591c24" opacity="1.00" d=" M 126.91 421.23 C 129.03 420.01 130.34 417.97 131.59 415.94 C 131.67 417.22 131.75 418.50 131.83 419.79 C 133.36 419.96 134.94 420.14 136.28 420.98 C 134.78 421.17 133.27 421.27 131.77 421.38 C 131.85 425.23 131.57 429.09 131.89 432.92 C 132.33 434.89 135.17 433.81 136.56 434.39 C 134.64 436.27 130.37 437.04 129.33 433.93 C 128.88 429.75 129.25 425.52 129.14 421.33 C 128.59 421.31 127.47 421.26 126.91 421.23 Z" />
<path fill="#591c24" opacity="1.00" d=" M 108.51 420.37 C 110.37 419.98 112.28 419.98 114.18 419.95 C 114.17 424.88 114.19 429.82 114.16 434.75 C 114.97 434.94 116.58 435.32 117.38 435.51 C 114.37 436.40 111.17 435.99 108.08 435.86 C 109.22 435.42 110.37 435.02 111.53 434.64 C 111.50 430.19 111.50 425.74 111.53 421.29 C 110.77 421.06 109.26 420.60 108.51 420.37 Z" />
<path fill="#591c24" opacity="1.00" d=" M 163.80 420.89 C 166.11 419.40 168.92 420.18 171.46 420.48 C 171.45 421.73 171.46 422.98 171.46 424.23 C 170.27 421.49 166.09 419.67 164.36 422.92 C 163.56 426.11 167.78 426.30 169.73 427.40 C 173.05 428.12 173.82 433.20 170.93 434.90 C 168.43 436.55 165.18 436.13 162.47 435.27 C 161.21 433.93 162.42 432.14 162.55 430.61 C 162.76 431.42 163.20 433.05 163.42 433.86 C 165.72 435.02 170.10 435.55 170.30 431.95 C 169.47 427.95 163.66 429.45 162.18 425.92 C 161.83 424.14 161.95 421.82 163.80 420.89 Z" />
<path fill="#591c24" opacity="1.00" d=" M 200.07 420.04 C 202.94 419.96 205.82 419.91 208.70 420.12 C 207.89 420.44 206.28 421.08 205.48 421.40 C 206.87 424.71 207.69 428.28 209.60 431.37 C 210.95 428.29 211.98 425.08 213.41 422.03 C 213.72 422.07 214.35 422.14 214.67 422.17 C 216.08 425.24 216.89 428.58 218.75 431.45 C 220.00 428.06 221.14 424.63 222.34 421.23 C 221.49 421.07 219.80 420.74 218.95 420.57 C 221.35 419.76 223.91 419.97 226.40 420.07 C 225.75 420.38 224.44 421.00 223.79 421.31 C 221.95 426.09 220.42 430.99 218.48 435.73 C 218.20 435.78 217.65 435.88 217.38 435.93 C 215.82 432.75 214.80 429.34 213.22 426.17 C 211.76 429.42 210.69 432.84 209.08 436.02 L 208.21 435.90 C 206.20 431.16 204.58 426.26 202.74 421.46 C 202.07 421.10 200.73 420.39 200.07 420.04 Z" />
<path fill="#591c24" opacity="1.00" d=" M 235.57 420.41 C 237.46 420.05 239.38 419.97 241.30 419.91 C 241.30 424.82 241.32 429.72 241.29 434.63 C 242.41 435.01 243.52 435.42 244.62 435.86 C 241.51 436.10 238.38 436.11 235.28 435.85 C 236.40 435.41 237.54 435.01 238.69 434.64 C 238.67 430.19 238.66 425.73 238.69 421.28 C 237.91 421.06 236.35 420.63 235.57 420.41 Z" />
<path fill="#591c24" opacity="1.00" d=" M 254.26 420.04 C 255.93 420.00 257.60 419.97 259.27 419.98 C 259.20 424.84 259.39 429.71 259.28 434.58 C 259.98 434.92 261.36 435.61 262.05 435.95 C 259.45 436.04 256.86 436.03 254.26 435.97 C 254.87 435.62 256.09 434.92 256.70 434.57 C 256.66 430.19 256.66 425.81 256.71 421.43 C 256.09 421.08 254.87 420.39 254.26 420.04 Z" />
<path fill="#591c24" opacity="1.00" d=" M 260.19 421.76 C 262.18 419.45 268.10 419.03 268.64 423.12 C 268.96 426.93 268.70 430.76 268.76 434.58 C 269.44 434.92 270.79 435.61 271.47 435.96 C 268.77 436.03 266.08 436.05 263.38 435.94 C 264.07 435.61 265.44 434.94 266.12 434.61 C 266.09 431.05 266.31 427.48 266.03 423.93 C 265.45 421.18 262.17 422.32 260.19 421.76 Z" />
<path fill="#591c24" opacity="1.00" d=" M 282.52 423.86 C 283.97 419.68 290.17 418.68 293.13 421.80 C 294.69 423.57 294.51 426.06 294.79 428.26 C 291.37 428.26 287.95 428.23 284.54 428.34 C 284.91 430.34 284.98 432.92 287.16 433.86 C 289.59 434.48 292.14 433.97 294.62 434.08 C 291.55 436.46 286.80 436.81 283.76 434.22 C 281.42 431.39 281.37 427.20 282.52 423.86 M 284.56 426.96 C 287.04 427.00 289.53 427.00 292.02 426.93 C 291.68 424.82 291.68 421.43 288.84 421.25 C 285.65 420.96 284.87 424.54 284.56 426.96 Z" />
<path fill="#591c24" opacity="1.00" d=" M 328.36 420.48 C 331.85 419.16 336.77 420.32 338.08 424.17 C 338.97 427.15 338.99 430.66 337.26 433.36 C 334.13 437.46 326.14 436.85 324.52 431.61 C 323.45 427.71 323.78 421.91 328.36 420.48 M 328.33 422.26 C 326.75 424.05 326.85 426.72 326.87 428.97 C 327.15 430.80 327.14 433.30 329.09 434.25 C 331.40 435.65 334.89 434.29 335.38 431.55 C 335.90 429.05 336.01 426.36 335.22 423.91 C 334.34 421.15 330.39 420.34 328.33 422.26 Z" />
<path fill="#591c24" opacity="1.00" d=" M 368.48 421.50 C 371.39 419.34 375.18 420.01 378.50 420.51 C 378.44 422.14 378.37 423.77 378.31 425.42 C 377.43 423.58 376.52 421.05 374.02 421.24 C 368.28 420.78 367.62 428.52 369.69 432.30 C 372.00 435.32 376.24 433.81 379.45 434.06 C 376.02 436.73 370.48 436.82 367.41 433.57 C 364.97 430.03 365.07 424.39 368.48 421.50 Z" />
<path fill="#591c24" opacity="1.00" d=" M 413.33 420.43 C 415.94 419.54 419.06 419.91 421.24 421.67 C 425.82 426.21 423.51 436.72 416.00 436.03 C 407.70 436.62 406.00 422.87 413.33 420.43 M 413.34 422.13 C 411.01 424.68 411.51 428.76 412.19 431.90 C 412.81 435.42 418.35 435.76 419.77 432.65 C 420.90 430.00 420.85 426.89 420.12 424.14 C 419.40 421.31 415.50 420.31 413.34 422.13 Z" />
<path fill="#591c24" opacity="1.00" d=" M 436.52 423.41 C 438.86 419.27 444.28 419.71 448.27 420.59 C 448.19 422.23 448.32 423.95 447.52 425.45 C 447.28 424.57 446.78 422.81 446.54 421.93 C 444.33 421.30 441.44 420.56 439.77 422.69 C 437.83 425.47 437.88 429.60 439.49 432.51 C 441.95 435.25 446.01 433.78 449.21 434.14 C 446.47 435.89 442.97 436.68 439.86 435.42 C 435.03 433.86 434.54 427.32 436.52 423.41 Z" />
<path fill="#591c24" opacity="1.00" d=" M 214.38 490.66 C 216.39 485.46 218.82 480.43 220.77 475.21 C 222.79 480.46 225.34 485.48 227.40 490.72 C 232.57 491.49 237.78 492.08 242.93 493.09 C 239.21 496.73 235.50 500.39 231.78 504.04 C 232.33 509.19 233.33 514.29 233.88 519.45 C 229.48 517.33 225.09 515.20 220.74 512.99 C 216.19 515.25 211.52 517.27 207.16 519.88 C 208.43 514.64 208.80 509.25 209.77 503.95 C 206.15 500.33 202.54 496.70 198.90 493.11 C 204.03 492.11 209.25 491.65 214.38 490.66 Z" />
<path fill="#591c24" opacity="1.00" d=" M 287.77 490.77 C 290.00 485.35 292.82 480.17 294.58 474.57 C 296.08 480.23 299.12 485.31 301.23 490.75 C 306.32 491.47 311.42 492.14 316.49 493.06 C 312.79 496.66 309.19 500.35 305.51 503.97 C 306.17 509.20 306.94 514.42 307.78 519.64 C 303.36 517.34 298.85 515.22 294.42 512.96 C 290.07 515.28 285.55 517.26 281.23 519.63 C 281.89 514.39 282.73 509.18 283.49 503.96 C 279.82 500.35 276.22 496.68 272.55 493.09 C 277.60 492.19 282.70 491.57 287.77 490.77 Z" />
<path fill="#591c24" opacity="1.00" d=" M 361.61 490.72 C 363.71 485.50 366.25 480.47 368.25 475.21 C 370.21 480.43 372.65 485.47 374.66 490.68 C 379.80 491.54 384.99 492.04 390.10 493.08 C 386.47 496.71 382.84 500.33 379.22 503.96 C 380.13 509.26 380.37 514.68 381.86 519.87 C 377.44 517.34 372.77 515.31 368.26 512.99 C 363.87 515.11 359.51 517.30 355.12 519.40 C 355.58 514.25 356.51 509.16 357.22 504.04 C 353.51 500.39 349.81 496.72 346.07 493.11 C 351.23 492.15 356.44 491.60 361.61 490.72 Z" />
</g>
<g id="#ffffffff">
<path fill="#ffffff" opacity="1.00" d=" M 175.69 36.74 C 235.10 9.53 303.90 3.79 367.07 20.34 C 421.53 34.40 471.48 65.09 508.85 107.09 C 538.89 140.59 560.82 181.27 572.34 224.77 C 569.79 224.76 567.24 224.75 564.69 224.73 C 554.17 186.22 535.30 150.01 509.70 119.37 C 473.90 76.26 424.92 44.21 370.95 29.05 C 332.08 18.01 290.80 15.62 250.89 21.86 C 187.88 31.50 128.76 63.80 86.30 111.28 C 57.14 143.58 35.74 182.78 24.29 224.75 C 21.75 224.75 19.20 224.75 16.65 224.74 C 27.50 183.76 47.61 145.28 75.04 112.95 C 102.42 80.55 137.03 54.25 175.69 36.74 Z" />
<path fill="#ffffff" opacity="1.00" d=" M 147.58 63.57 C 199.33 30.84 262.22 16.47 323.08 22.90 C 379.74 28.52 434.33 52.44 477.03 90.08 C 517.57 125.44 547.34 172.88 561.64 224.73 C 557.57 224.77 553.50 224.76 549.43 224.74 C 538.07 185.78 517.78 149.42 490.29 119.55 C 452.28 77.72 400.53 48.58 344.98 38.02 C 287.93 26.94 227.24 35.08 175.39 61.43 C 110.07 93.90 59.62 154.60 39.58 224.74 C 35.51 224.77 31.43 224.77 27.36 224.73 C 45.45 158.50 89.28 99.82 147.58 63.57 Z" />
<path fill="#ffffff" opacity="1.00" d=" M 113.67 114.70 C 159.06 69.48 222.00 42.46 286.05 40.76 C 315.79 39.72 345.73 43.89 374.03 53.10 C 428.08 70.44 475.82 106.41 507.67 153.36 C 522.68 175.17 534.07 199.41 541.71 224.75 C 376.90 224.76 212.09 224.77 47.29 224.74 C 59.68 183.26 82.65 144.93 113.67 114.70 M 264.36 81.47 C 261.36 91.37 259.78 101.67 259.10 111.99 C 258.67 118.72 258.14 125.79 260.90 132.14 C 265.71 144.05 277.43 152.41 290.00 154.27 C 290.03 163.25 289.93 172.23 290.06 181.21 C 283.23 186.77 274.56 189.22 266.12 191.08 C 264.00 191.35 263.24 193.52 262.54 195.21 C 283.85 195.28 305.15 195.28 326.46 195.21 C 325.76 193.55 325.03 191.39 322.96 191.09 C 314.50 189.24 305.82 186.79 298.96 181.26 C 299.04 172.26 298.98 163.27 299.00 154.28 C 310.81 152.35 321.19 144.37 326.90 133.97 C 329.54 129.12 330.56 123.52 330.21 118.03 C 329.76 105.56 328.26 93.04 324.62 81.08 C 324.09 79.02 322.28 77.25 320.03 77.52 C 303.03 77.49 286.02 77.49 269.01 77.52 C 266.57 77.14 264.88 79.34 264.36 81.47 Z" />
<path fill="#ffffff" opacity="1.00" d=" M 268.11 124.04 C 267.54 111.43 268.86 98.60 272.53 86.48 C 287.25 86.52 301.96 86.49 316.67 86.50 C 317.43 89.49 318.10 92.50 318.75 95.52 C 306.07 95.48 293.39 95.49 280.71 95.52 C 277.66 104.99 276.40 115.03 276.56 124.97 C 277.02 135.09 285.80 142.35 294.70 145.57 C 282.58 145.04 270.60 136.16 268.11 124.04 Z" />
<path fill="#ffffff" opacity="1.00" d=" M 14.71 364.72 C 4.58 321.33 4.48 275.60 14.77 232.24 C 201.19 232.32 387.62 232.14 574.04 232.32 C 576.54 240.63 577.71 249.39 579.06 257.99 C 584.11 293.46 582.43 329.85 574.25 364.73 C 387.74 364.76 201.23 364.79 14.71 364.72 M 181.78 268.15 C 181.92 270.06 183.69 270.49 185.19 271.05 C 185.23 284.34 185.23 297.63 185.19 310.92 C 184.14 311.63 180.70 311.90 181.93 313.78 C 187.06 314.21 192.23 314.02 197.37 313.91 C 198.78 311.84 195.50 311.55 194.26 310.95 C 194.23 296.64 194.25 282.32 194.24 268.01 C 190.09 268.01 185.93 267.91 181.78 268.15 M 129.27 271.05 C 129.30 271.61 129.37 272.73 129.40 273.28 C 131.19 273.58 132.99 273.88 134.78 274.18 C 134.74 286.39 134.74 298.59 134.78 310.80 C 132.99 311.09 131.21 311.39 129.42 311.70 C 129.37 312.26 129.27 313.36 129.22 313.92 C 142.07 314.12 154.92 313.92 167.76 314.02 C 168.37 309.99 168.27 305.90 168.50 301.84 C 167.85 301.92 166.55 302.07 165.90 302.14 C 165.06 304.65 164.62 307.27 164.13 309.87 C 157.69 310.96 151.14 310.36 144.65 310.48 C 144.65 304.82 144.65 299.17 144.65 293.53 C 148.50 293.49 152.35 293.49 156.20 293.52 C 156.90 295.69 156.47 299.51 159.84 298.55 C 159.75 294.08 159.79 289.60 159.78 285.13 C 159.12 285.17 157.82 285.24 157.17 285.28 C 156.86 286.84 156.57 288.41 156.29 289.98 C 152.41 290.01 148.52 290.01 144.64 289.97 C 144.65 284.82 144.65 279.67 144.65 274.53 C 150.52 274.61 156.45 274.07 162.26 275.18 C 162.47 277.38 162.69 279.59 162.90 281.79 C 163.59 281.86 164.96 281.99 165.65 282.05 C 165.65 278.37 165.65 274.69 165.65 271.01 C 153.52 271.03 141.39 270.93 129.27 271.05 M 208.46 271.02 C 208.47 275.00 208.47 278.98 208.46 282.97 C 209.14 282.99 210.50 283.02 211.19 283.04 C 211.44 280.43 211.57 277.81 212.03 275.24 C 216.02 274.08 220.24 274.29 224.36 274.27 C 224.36 286.44 224.33 298.61 224.37 310.78 C 222.09 311.08 219.82 311.41 217.54 311.74 C 217.48 312.27 217.37 313.35 217.31 313.89 C 225.27 314.01 233.26 314.19 241.22 313.81 C 241.38 310.25 236.50 311.59 234.23 310.82 C 234.27 298.62 234.22 286.42 234.25 274.22 C 238.37 274.34 242.49 274.45 246.58 275.02 C 246.90 277.68 247.27 280.33 247.55 283.00 C 248.22 283.00 249.57 283.00 250.24 283.00 C 250.24 279.00 250.24 275.00 250.24 271.00 C 236.31 271.01 222.39 270.98 208.46 271.02 M 259.75 284.19 C 259.75 286.90 259.74 289.62 259.80 292.34 C 262.31 292.15 262.26 289.57 262.83 287.71 C 265.52 286.52 268.78 285.06 271.63 286.56 C 274.62 288.68 273.33 292.84 273.64 295.94 C 269.45 296.11 265.14 296.03 261.13 297.41 C 253.96 300.10 254.31 313.03 262.12 314.61 C 266.31 315.89 270.55 314.09 274.14 312.01 C 274.30 312.50 274.63 313.50 274.79 314.00 C 278.53 314.00 282.28 314.06 286.02 313.87 C 285.93 311.94 284.15 311.51 282.67 310.93 C 282.59 304.27 282.72 297.60 282.63 290.94 C 282.72 287.94 280.77 285.00 277.88 284.09 C 272.02 281.89 265.73 283.51 259.75 284.19 M 308.96 286.48 C 308.80 285.89 308.47 284.70 308.31 284.10 C 304.27 284.16 299.93 283.23 296.12 284.87 C 297.28 285.65 298.51 286.36 299.65 287.20 C 299.92 295.11 299.68 303.04 299.74 310.95 C 298.33 311.54 296.87 312.18 296.44 313.82 C 301.65 314.10 306.89 314.11 312.11 313.83 C 311.79 312.09 310.32 311.41 308.82 310.90 C 308.71 303.45 308.86 295.99 308.73 288.53 C 311.08 287.91 313.73 286.49 316.06 287.90 C 317.95 288.78 318.50 291.03 318.46 292.94 C 318.50 298.95 318.46 304.97 318.44 310.99 C 317.34 311.59 314.59 312.11 315.90 313.91 C 320.87 314.08 325.86 314.13 330.83 313.78 C 330.73 313.32 330.51 312.41 330.40 311.95 C 329.69 311.74 328.26 311.33 327.54 311.12 C 327.47 304.41 327.62 297.69 327.49 290.98 C 327.54 287.84 325.87 284.45 322.66 283.55 C 317.90 281.83 313.15 284.45 308.96 286.48 M 349.01 285.18 C 344.78 287.92 343.18 293.24 343.22 298.05 C 343.12 303.04 343.66 308.81 347.68 312.31 C 352.47 315.99 359.36 315.68 364.35 312.52 C 363.50 316.40 364.24 320.34 364.08 324.25 C 363.27 325.94 361.07 325.44 359.59 326.02 C 359.49 326.46 359.28 327.35 359.17 327.79 C 364.93 328.21 370.71 327.93 376.48 327.98 C 376.62 325.87 374.73 325.56 373.17 325.04 C 373.14 310.82 373.16 296.59 373.16 282.37 C 369.72 282.34 366.52 284.34 363.07 283.49 C 358.37 282.75 353.21 282.59 349.01 285.18 M 438.40 285.38 C 434.11 288.41 433.12 294.09 433.31 299.01 C 433.11 304.10 434.33 310.03 439.01 312.88 C 444.63 316.09 451.71 315.34 457.40 312.69 C 457.54 312.09 457.83 310.87 457.97 310.26 C 453.86 310.67 449.09 312.16 445.35 309.72 C 442.06 307.34 442.57 302.84 442.31 299.28 C 447.68 299.25 453.06 299.26 458.44 299.27 C 458.35 294.33 458.42 288.24 454.03 284.97 C 449.37 282.07 442.95 282.39 438.40 285.38 M 386.70 284.08 C 385.63 286.12 388.28 286.42 389.57 286.95 C 389.72 293.62 389.50 300.29 389.66 306.96 C 389.67 310.06 391.21 313.51 394.42 314.42 C 399.23 316.19 404.05 313.56 408.27 311.46 C 408.40 312.10 408.66 313.36 408.79 314.00 C 412.60 313.95 416.42 314.13 420.23 313.92 C 421.53 311.94 418.64 311.57 417.42 311.06 C 417.34 302.04 417.40 293.02 417.38 284.01 C 413.20 284.03 409.01 283.79 404.86 284.32 C 405.43 285.87 406.87 286.55 408.32 287.12 C 408.39 294.64 408.35 302.15 408.34 309.66 C 405.97 310.06 403.38 311.49 401.07 310.12 C 398.92 308.93 398.63 306.16 398.64 303.97 C 398.64 297.32 398.65 290.67 398.66 284.02 C 394.67 284.04 390.68 283.87 386.70 284.08 Z" />
<path fill="#ffffff" opacity="1.00" d=" M 353.84 289.76 C 355.29 285.53 360.34 285.94 363.87 286.73 C 363.79 294.67 363.90 302.62 363.81 310.56 C 360.45 311.72 355.55 312.38 353.77 308.44 C 351.66 302.54 351.82 295.67 353.84 289.76 Z" />
<path fill="#ffffff" opacity="1.00" d=" M 444.09 287.20 C 445.33 285.39 448.37 285.95 449.02 288.00 C 449.86 290.55 449.57 293.32 449.81 295.97 C 447.31 295.99 444.82 296.00 442.33 296.01 C 442.66 293.06 442.21 289.71 444.09 287.20 Z" />
<path fill="#ffffff" opacity="1.00" d=" M 265.75 301.45 C 267.21 298.51 270.91 299.07 273.62 298.83 C 273.61 302.59 273.60 306.34 273.64 310.10 C 271.46 310.84 269.18 311.06 266.90 311.09 C 264.71 308.40 264.83 304.61 265.75 301.45 Z" />
<path fill="#ffffff" opacity="1.00" d=" M 16.66 372.24 C 19.21 372.24 21.75 372.25 24.29 372.25 C 38.49 424.51 68.32 472.33 108.91 508.15 C 138.12 534.10 172.83 553.85 210.12 565.58 C 254.20 579.53 301.75 582.22 347.15 573.57 C 386.73 566.08 424.61 549.82 457.32 526.32 C 487.83 504.47 513.92 476.46 533.48 444.43 C 547.33 422.05 557.65 397.58 564.72 372.25 C 567.25 372.25 569.79 372.24 572.34 372.25 C 562.47 409.28 545.18 444.33 521.61 474.56 C 498.18 504.87 468.57 530.35 435.20 549.14 C 398.50 569.84 357.15 582.24 315.11 585.14 C 269.32 588.46 222.71 580.72 180.58 562.42 C 143.63 546.48 110.15 522.62 82.94 492.99 C 51.50 458.90 28.53 417.08 16.66 372.24 Z" />
<path fill="#ffffff" opacity="1.00" d=" M 27.36 372.28 C 31.43 372.23 35.50 372.24 39.58 372.26 C 53.19 419.12 79.90 462.12 116.14 494.82 C 145.66 521.79 181.42 541.90 219.79 553.13 C 263.23 565.87 309.93 567.22 354.05 557.08 C 395.37 547.67 434.27 527.98 466.47 500.45 C 505.90 467.07 535.02 421.85 549.43 372.26 C 553.50 372.24 557.57 372.23 561.64 372.28 C 551.07 410.19 532.48 445.89 507.16 476.06 C 483.71 504.15 454.67 527.57 422.19 544.45 C 381.64 565.63 335.73 576.37 290.00 575.51 C 247.71 574.96 205.58 564.44 167.98 545.07 C 133.38 527.27 102.61 502.10 78.29 471.74 C 54.77 442.51 37.38 408.42 27.36 372.28 Z" />
<path fill="#ffffff" opacity="1.00" d=" M 47.30 372.26 C 212.10 372.25 376.90 372.24 541.70 372.26 C 530.29 410.37 509.97 445.76 482.73 474.75 C 456.29 503.01 423.47 525.27 387.36 539.20 C 348.27 554.34 305.45 559.58 263.85 554.62 C 226.06 550.19 189.30 537.20 157.18 516.81 C 104.71 483.97 64.86 431.62 47.30 372.26 M 389.14 412.47 C 389.99 412.67 391.69 413.07 392.55 413.26 C 392.47 420.39 392.52 427.52 392.52 434.65 C 391.35 435.03 390.20 435.43 389.06 435.86 C 392.16 436.09 395.28 436.10 398.38 435.85 C 397.31 435.41 396.24 435.00 395.16 434.61 C 395.20 427.07 395.16 419.52 395.18 411.98 C 393.15 411.97 391.10 411.88 389.14 412.47 M 458.68 412.09 C 459.68 412.53 460.69 412.96 461.71 413.38 C 461.65 420.44 461.65 427.51 461.71 434.57 C 461.04 434.92 459.72 435.62 459.06 435.98 C 461.60 436.02 464.14 436.03 466.69 435.97 C 466.09 435.62 464.88 434.92 464.28 434.57 C 464.28 433.11 464.29 431.65 464.30 430.21 C 465.05 429.42 465.80 428.65 466.57 427.87 C 468.06 430.08 469.50 432.33 470.97 434.56 C 470.51 434.92 469.58 435.64 469.11 436.00 C 471.55 436.00 473.99 435.99 476.43 436.02 C 472.39 433.88 471.00 429.21 468.31 425.81 C 470.40 423.52 472.60 421.27 475.49 419.99 C 473.27 419.98 471.06 419.99 468.85 420.00 C 469.39 420.36 470.48 421.09 471.02 421.46 C 468.79 423.76 466.62 426.13 464.36 428.41 C 464.25 422.93 464.33 417.44 464.31 411.96 C 462.42 411.98 460.55 411.99 458.68 412.09 M 148.53 421.49 C 149.16 418.70 149.43 415.86 149.83 413.05 C 149.03 413.02 147.44 412.98 146.64 412.96 C 147.19 415.79 146.72 419.06 148.53 421.49 M 237.38 414.86 C 238.02 416.72 240.70 418.06 241.48 415.54 C 241.87 412.85 238.47 413.14 237.38 414.86 M 350.59 413.07 C 351.21 415.85 350.74 419.10 352.54 421.48 C 353.16 418.68 353.43 415.82 353.83 413.00 C 352.74 413.01 351.66 413.04 350.59 413.07 M 111.15 414.21 C 109.34 415.74 113.13 418.57 114.11 415.97 C 115.67 414.21 111.91 412.14 111.15 414.21 M 126.91 421.23 C 127.47 421.26 128.59 421.31 129.14 421.33 C 129.25 425.52 128.88 429.75 129.33 433.93 C 130.37 437.04 134.64 436.27 136.56 434.39 C 135.17 433.81 132.33 434.89 131.89 432.92 C 131.57 429.09 131.85 425.23 131.77 421.38 C 133.27 421.27 134.78 421.17 136.28 420.98 C 134.94 420.14 133.36 419.96 131.83 419.79 C 131.75 418.50 131.67 417.22 131.59 415.94 C 130.34 417.97 129.03 420.01 126.91 421.23 M 108.51 420.37 C 109.26 420.60 110.77 421.06 111.53 421.29 C 111.50 425.74 111.50 430.19 111.53 434.64 C 110.37 435.02 109.22 435.42 108.08 435.86 C 111.17 435.99 114.37 436.40 117.38 435.51 C 116.58 435.32 114.97 434.94 114.16 434.75 C 114.19 429.82 114.17 424.88 114.18 419.95 C 112.28 419.98 110.37 419.98 108.51 420.37 M 163.80 420.89 C 161.95 421.82 161.83 424.14 162.18 425.92 C 163.66 429.45 169.47 427.95 170.30 431.95 C 170.10 435.55 165.72 435.02 163.42 433.86 C 163.20 433.05 162.76 431.42 162.55 430.61 C 162.42 432.14 161.21 433.93 162.47 435.27 C 165.18 436.13 168.43 436.55 170.93 434.90 C 173.82 433.20 173.05 428.12 169.73 427.40 C 167.78 426.30 163.56 426.11 164.36 422.92 C 166.09 419.67 170.27 421.49 171.46 424.23 C 171.46 422.98 171.45 421.73 171.46 420.48 C 168.92 420.18 166.11 419.40 163.80 420.89 M 200.07 420.04 C 200.73 420.39 202.07 421.10 202.74 421.46 C 204.58 426.26 206.20 431.16 208.21 435.90 L 209.08 436.02 C 210.69 432.84 211.76 429.42 213.22 426.17 C 214.80 429.34 215.82 432.75 217.38 435.93 C 217.65 435.88 218.20 435.78 218.48 435.73 C 220.42 430.99 221.95 426.09 223.79 421.31 C 224.44 421.00 225.75 420.38 226.40 420.07 C 223.91 419.97 221.35 419.76 218.95 420.57 C 219.80 420.74 221.49 421.07 222.34 421.23 C 221.14 424.63 220.00 428.06 218.75 431.45 C 216.89 428.58 216.08 425.24 214.67 422.17 C 214.35 422.14 213.72 422.07 213.41 422.03 C 211.98 425.08 210.95 428.29 209.60 431.37 C 207.69 428.28 206.87 424.71 205.48 421.40 C 206.28 421.08 207.89 420.44 208.70 420.12 C 205.82 419.91 202.94 419.96 200.07 420.04 M 235.57 420.41 C 236.35 420.63 237.91 421.06 238.69 421.28 C 238.66 425.73 238.67 430.19 238.69 434.64 C 237.54 435.01 236.40 435.41 235.28 435.85 C 238.38 436.11 241.51 436.10 244.62 435.86 C 243.52 435.42 242.41 435.01 241.29 434.63 C 241.32 429.72 241.30 424.82 241.30 419.91 C 239.38 419.97 237.46 420.05 235.57 420.41 M 254.26 420.04 C 254.87 420.39 256.09 421.08 256.71 421.43 C 256.66 425.81 256.66 430.19 256.70 434.57 C 256.09 434.92 254.87 435.62 254.26 435.97 C 256.86 436.03 259.45 436.04 262.05 435.95 C 261.36 435.61 259.98 434.92 259.28 434.58 C 259.39 429.71 259.20 424.84 259.27 419.98 C 257.60 419.97 255.93 420.00 254.26 420.04 M 260.19 421.76 C 262.17 422.32 265.45 421.18 266.03 423.93 C 266.31 427.48 266.09 431.05 266.12 434.61 C 265.44 434.94 264.07 435.61 263.38 435.94 C 266.08 436.05 268.77 436.03 271.47 435.96 C 270.79 435.61 269.44 434.92 268.76 434.58 C 268.70 430.76 268.96 426.93 268.64 423.12 C 268.10 419.03 262.18 419.45 260.19 421.76 M 282.52 423.86 C 281.37 427.20 281.42 431.39 283.76 434.22 C 286.80 436.81 291.55 436.46 294.62 434.08 C 292.14 433.97 289.59 434.48 287.16 433.86 C 284.98 432.92 284.91 430.34 284.54 428.34 C 287.95 428.23 291.37 428.26 294.79 428.26 C 294.51 426.06 294.69 423.57 293.13 421.80 C 290.17 418.68 283.97 419.68 282.52 423.86 M 328.36 420.48 C 323.78 421.91 323.45 427.71 324.52 431.61 C 326.14 436.85 334.13 437.46 337.26 433.36 C 338.99 430.66 338.97 427.15 338.08 424.17 C 336.77 420.32 331.85 419.16 328.36 420.48 M 368.48 421.50 C 365.07 424.39 364.97 430.03 367.41 433.57 C 370.48 436.82 376.02 436.73 379.45 434.06 C 376.24 433.81 372.00 435.32 369.69 432.30 C 367.62 428.52 368.28 420.78 374.02 421.24 C 376.52 421.05 377.43 423.58 378.31 425.42 C 378.37 423.77 378.44 422.14 378.50 420.51 C 375.18 420.01 371.39 419.34 368.48 421.50 M 413.33 420.43 C 406.00 422.87 407.70 436.62 416.00 436.03 C 423.51 436.72 425.82 426.21 421.24 421.67 C 419.06 419.91 415.94 419.54 413.33 420.43 M 436.52 423.41 C 434.54 427.32 435.03 433.86 439.86 435.42 C 442.97 436.68 446.47 435.89 449.21 434.14 C 446.01 433.78 441.95 435.25 439.49 432.51 C 437.88 429.60 437.83 425.47 439.77 422.69 C 441.44 420.56 444.33 421.30 446.54 421.93 C 446.78 422.81 447.28 424.57 447.52 425.45 C 448.32 423.95 448.19 422.23 448.27 420.59 C 444.28 419.71 438.86 419.27 436.52 423.41 M 214.38 490.66 C 209.25 491.65 204.03 492.11 198.90 493.11 C 202.54 496.70 206.15 500.33 209.77 503.95 C 208.80 509.25 208.43 514.64 207.16 519.88 C 211.52 517.27 216.19 515.25 220.74 512.99 C 225.09 515.20 229.48 517.33 233.88 519.45 C 233.33 514.29 232.33 509.19 231.78 504.04 C 235.50 500.39 239.21 496.73 242.93 493.09 C 237.78 492.08 232.57 491.49 227.40 490.72 C 225.34 485.48 222.79 480.46 220.77 475.21 C 218.82 480.43 216.39 485.46 214.38 490.66 M 287.77 490.77 C 282.70 491.57 277.60 492.19 272.55 493.09 C 276.22 496.68 279.82 500.35 283.49 503.96 C 282.73 509.18 281.89 514.39 281.23 519.63 C 285.55 517.26 290.07 515.28 294.42 512.96 C 298.85 515.22 303.36 517.34 307.78 519.64 C 306.94 514.42 306.17 509.20 305.51 503.97 C 309.19 500.35 312.79 496.66 316.49 493.06 C 311.42 492.14 306.32 491.47 301.23 490.75 C 299.12 485.31 296.08 480.23 294.58 474.57 C 292.82 480.17 290.00 485.35 287.77 490.77 M 361.61 490.72 C 356.44 491.60 351.23 492.15 346.07 493.11 C 349.81 496.72 353.51 500.39 357.22 504.04 C 356.51 509.16 355.58 514.25 355.12 519.40 C 359.51 517.30 363.87 515.11 368.26 512.99 C 372.77 515.31 377.44 517.34 381.86 519.87 C 380.37 514.68 380.13 509.26 379.22 503.96 C 382.84 500.33 386.47 496.71 390.10 493.08 C 384.99 492.04 379.80 491.54 374.66 490.68 C 372.65 485.47 370.21 480.43 368.25 475.21 C 366.25 480.47 363.71 485.50 361.61 490.72 Z" />
<path fill="#ffffff" opacity="1.00" d=" M 284.56 426.96 C 284.87 424.54 285.65 420.96 288.84 421.25 C 291.68 421.43 291.68 424.82 292.02 426.93 C 289.53 427.00 287.04 427.00 284.56 426.96 Z" />
<path fill="#ffffff" opacity="1.00" d=" M 328.33 422.26 C 330.39 420.34 334.34 421.15 335.22 423.91 C 336.01 426.36 335.90 429.05 335.38 431.55 C 334.89 434.29 331.40 435.65 329.09 434.25 C 327.14 433.30 327.15 430.80 326.87 428.97 C 326.85 426.72 326.75 424.05 328.33 422.26 Z" />
<path fill="#ffffff" opacity="1.00" d=" M 413.34 422.13 C 415.50 420.31 419.40 421.31 420.12 424.14 C 420.85 426.89 420.90 430.00 419.77 432.65 C 418.35 435.76 412.81 435.42 412.19 431.90 C 411.51 428.76 411.01 424.68 413.34 422.13 Z" />
</g>
</svg>
